<?xml version="1.0" encoding="UTF-8" standalone="no"?>
<svg
   viewBox="0 0 2500 2500"
   enable-background="new 0 0 50 50"
   version="1.1"
   id="svg12"
   sodipodi:docname="Ei-sc-github.svg"
   inkscape:export-filename="Ei-sc-github.png"
   inkscape:export-xdpi="96"
   inkscape:export-ydpi="96"
   width="2500"
   height="2500"
   xmlns:inkscape="http://www.inkscape.org/namespaces/inkscape"
   xmlns:sodipodi="http://sodipodi.sourceforge.net/DTD/sodipodi-0.dtd"
   xmlns="http://www.w3.org/2000/svg"
   xmlns:svg="http://www.w3.org/2000/svg">
  <defs
     id="defs16" />
  <sodipodi:namedview
     id="namedview14"
     pagecolor="#ffffff"
     bordercolor="#000000"
     borderopacity="0.25"
     inkscape:showpageshadow="2"
     inkscape:pageopacity="0.0"
     inkscape:pagecheckerboard="0"
     inkscape:deskcolor="#d1d1d1"
     showgrid="false" />
  <path
     fill-rule="evenodd"
     clip-rule="evenodd"
     fill="#181616"
     d="m 25,10 c -8.3,0 -15,6.7 -15,15 0,6.6 4.3,12.2 10.3,14.2 0.8,0.1 1,-0.3 1,-0.7 v -2.6 c -4.2,0.9 -5.1,-2 -5.1,-2 -0.7,-1.7 -1.7,-2.2 -1.7,-2.2 -1.4,-0.9 0.1,-0.9 0.1,-0.9 1.5,0.1 2.3,1.5 2.3,1.5 1.3,2.3 3.5,1.6 4.4,1.2 0.1,-1 0.5,-1.6 1,-2 -3.3,-0.4 -6.8,-1.7 -6.8,-7.4 0,-1.6 0.6,-3 1.5,-4 -0.2,-0.4 -0.7,-1.9 0.1,-4 0,0 1.3,-0.4 4.1,1.5 1.2,-0.3 2.5,-0.5 3.8,-0.5 1.3,0 2.6,0.2 3.8,0.5 2.9,-1.9 4.1,-1.5 4.1,-1.5 0.8,2.1 0.3,3.6 0.1,4 1,1 1.5,2.4 1.5,4 0,5.8 -3.5,7 -6.8,7.4 0.5,0.5 1,1.4 1,2.8 v 4.1 c 0,0.4 0.3,0.9 1,0.7 6,-2 10.2,-7.6 10.2,-14.2 C 40,16.7 33.3,10 25,10 Z"
     id="path10" />
  <path
     style="fill:#ffffff;stroke:#000000;stroke-width:0;stroke-linejoin:bevel;paint-order:markers stroke fill"
     d="m 24.729767,6.2743846 c -3.488304,-0.00221 -6.94895,1.1020513 -9.877182,2.9788102 -3.371687,2.1800662 -6.037182,5.4484372 -7.4116634,9.2283772 -2.0791966,5.411435 -1.3751359,11.789765 1.8172475,16.6271 2.3064179,3.547811 5.8313609,6.30665 9.8572909,7.626934 1.79249,0.59701 3.939853,0.0014 5.058121,-1.549499 0.501939,-0.672105 0.768113,-1.497737 0.833958,-2.32905 0.136311,1.865767 1.577591,3.539042 3.416814,3.909429 1.769326,0.394793 3.480769,-0.457646 5.03137,-1.204292 4.789835,-2.42616 8.437275,-7.006152 9.658863,-12.242466 0.577689,-2.203858 0.58331,-4.507085 0.405468,-6.763726 -0.52664,-4.436607 -2.746692,-8.6406 -6.110686,-11.581335 C 33.977838,7.8880995 29.34757,6.1534497 24.729767,6.2743846 Z m 0.47544,14.6085034 c 1.205026,-0.06558 2.356882,0.369798 3.545818,0.440584 0.32876,0.06065 0.808566,-0.260956 0.838656,0.249846 0.196283,0.65346 0.80801,1.055316 1.044696,1.679707 0.171153,1.078697 0.157881,2.260907 -0.341738,3.254933 -0.521105,0.883241 -1.649021,1.014373 -2.562152,1.203328 -1.021067,0.04793 -2.030444,0.494048 -2.71211,1.260814 -0.724196,-0.820211 -1.79899,-1.251672 -2.880057,-1.285695 -0.954513,-0.192163 -2.146472,-0.434463 -2.548641,-1.45186 -0.34073,-0.934808 -0.406031,-1.984371 -0.203677,-2.956311 0.267446,-0.690485 0.895592,-1.183464 1.105118,-1.909811 0.195111,-0.194387 0.699238,0.0508 1.022697,-0.04959 1.13124,-0.15281 2.242615,-0.501691 3.397596,-0.436295 0.09793,-7.54e-4 0.195863,1.46e-4 0.293794,3.54e-4 z m -0.284251,13.659859 c 0.03941,0.870787 -0.119256,-0.31916 0,0 z"
     id="path383" />
</svg>
